<svg xmlns="http://www.w3.org/2000/svg" width="1180" height="960" viewBox="0 0 1180 960">
<defs><marker id="arrow" markerWidth="10" markerHeight="10" refX="8" refY="3" orient="auto" markerUnits="strokeWidth"><path d="M0,0 L0,6 L9,3 z" fill="#8F959E"/></marker><style>text{font-family:Arial,'PingFang SC','Heiti SC',sans-serif;font-size:14px;fill:#1F2329}.title{font-size:22px;font-weight:600}.edge-label{font-size:12px;fill:#595959;paint-order:stroke;stroke:#fff;stroke-width:4px;stroke-linejoin:round}</style></defs><rect width="100%" height="100%" fill="#fff"/><text class="title" x="590" y="34" text-anchor="middle">NPS问卷模板流程图</text><path d="M 590 114 L 590 140" stroke="#8F959E" stroke-width="1.5" fill="none" marker-end="url(#arrow)"/><path d="M 590 194 L 590 220" stroke="#8F959E" stroke-width="1.5" fill="none" marker-end="url(#arrow)"/><path d="M 500 247 L 350 247 L 350 342" stroke="#8F959E" stroke-width="1.5" fill="none" marker-end="url(#arrow)"/><text class="edge-label" x="358" y="239">查询</text><path d="M 590 274 L 590 315" stroke="#8F959E" stroke-width="1.5" fill="none" marker-end="url(#arrow)"/><text class="edge-label" x="598" y="307">新增/编辑</text><path d="M 680 247 L 915 247 L 915 315" stroke="#8F959E" stroke-width="1.5" fill="none" marker-end="url(#arrow)"/><text class="edge-label" x="923" y="239">启用/禁用</text><path d="M 235 315 L 235 170 L 500 170" stroke="#8F959E" stroke-width="1.5" fill="none" marker-end="url(#arrow)"/><path d="M 590 369 L 590 395" stroke="#8F959E" stroke-width="1.5" fill="none" marker-end="url(#arrow)"/><path d="M 590 449 L 430 449 L 430 475" stroke="#8F959E" stroke-width="1.5" fill="none" marker-end="url(#arrow)"/><text class="edge-label" x="438" y="441">全局</text><path d="M 590 449 L 760 449 L 760 475" stroke="#8F959E" stroke-width="1.5" fill="none" marker-end="url(#arrow)"/><text class="edge-label" x="768" y="441">非全局</text><path d="M 430 529 L 430 555" stroke="#8F959E" stroke-width="1.5" fill="none" marker-end="url(#arrow)"/><path d="M 430 609 L 185 609 L 185 650" stroke="#8F959E" stroke-width="1.5" fill="none" marker-end="url(#arrow)"/><text class="edge-label" x="193" y="601">APP功能</text><path d="M 430 609 L 445 650" stroke="#8F959E" stroke-width="1.5" fill="none" marker-end="url(#arrow)"/><text class="edge-label" x="453" y="642">设计/用研</text><path d="M 760 529 L 760 650" stroke="#8F959E" stroke-width="1.5" fill="none" marker-end="url(#arrow)"/><text class="edge-label" x="768" y="642">功能</text><path d="M 430 609 L 710 609 L 710 650" stroke="#8F959E" stroke-width="1.5" fill="none" marker-end="url(#arrow)"/><text class="edge-label" x="718" y="601">分组</text><path d="M 185 704 L 185 772 L 500 772" stroke="#8F959E" stroke-width="1.5" fill="none" marker-end="url(#arrow)"/><path d="M 445 704 L 445 772 L 500 772" stroke="#8F959E" stroke-width="1.5" fill="none" marker-end="url(#arrow)"/><path d="M 710 704 L 710 772 L 660 772" stroke="#8F959E" stroke-width="1.5" fill="none" marker-end="url(#arrow)"/><path d="M 580 799 L 580 825" stroke="#8F959E" stroke-width="1.5" fill="none" marker-end="url(#arrow)"/><path d="M 595 879 L 595 930 L 590 930 L 590 194" stroke="#8F959E" stroke-width="1.5" fill="none" marker-end="url(#arrow)"/><path d="M 915 369 L 915 395" stroke="#8F959E" stroke-width="1.5" fill="none" marker-end="url(#arrow)"/><path d="M 910 449 L 910 930 L 590 930" stroke="#8F959E" stroke-width="1.5" fill="none" marker-end="url(#arrow)"/><g id="t0"><rect x="500" y="60" width="180" height="54" rx="8" fill="#E8F3FF" stroke="#3370FF" stroke-width="1.5"/><text x="590" y="87" text-anchor="middle" dominant-baseline="middle">进入NPS管理</text></g><g id="t1"><rect x="500" y="140" width="180" height="54" rx="8" fill="#F7F8FA" stroke="#C9CDD4" stroke-width="1.5"/><text x="590" y="167" text-anchor="middle" dominant-baseline="middle">NPS问卷模板列表</text></g><g id="t2"><rect x="500" y="220" width="180" height="54" rx="22" fill="#FFF7E6" stroke="#FFB020" stroke-width="1.5"/><text x="590" y="247" text-anchor="middle" dominant-baseline="middle">操作类型</text></g><g id="t3"><rect x="120" y="315" width="230" height="54" rx="8" fill="#FFFFFF" stroke="#3370FF" stroke-width="1.5"/><text x="235" y="342" text-anchor="middle" dominant-baseline="middle">按模板名称/状态/业务场景筛选</text></g><g id="t4"><rect x="500" y="315" width="180" height="54" rx="8" fill="#F7F8FA" stroke="#C9CDD4" stroke-width="1.5"/><text x="590" y="342" text-anchor="middle" dominant-baseline="middle">新增/编辑模板</text></g><g id="t14"><rect x="825" y="315" width="180" height="54" rx="8" fill="#F7F8FA" stroke="#C9CDD4" stroke-width="1.5"/><text x="915" y="342" text-anchor="middle" dominant-baseline="middle">启用/禁用确认弹窗</text></g><g id="t5"><rect x="500" y="395" width="180" height="54" rx="22" fill="#FFF7E6" stroke="#FFB020" stroke-width="1.5"/><text x="590" y="422" text-anchor="middle" dominant-baseline="middle">业务场景</text></g><g id="t6"><rect x="335" y="475" width="190" height="54" rx="8" fill="#FFFFFF" stroke="#3370FF" stroke-width="1.5"/><text x="430" y="502" text-anchor="middle" dominant-baseline="middle">全局: 选择问卷类型</text></g><g id="t7"><rect x="665" y="475" width="190" height="54" rx="8" fill="#FFFFFF" stroke="#3370FF" stroke-width="1.5"/><text x="760" y="502" text-anchor="middle" dominant-baseline="middle">非全局: 固定功能问卷</text></g><g id="t8"><rect x="335" y="555" width="180" height="54" rx="22" fill="#FFF7E6" stroke="#FFB020" stroke-width="1.5"/><text x="425" y="582" text-anchor="middle" dominant-baseline="middle">问卷类型</text></g><g id="t9"><rect x="80" y="650" width="210" height="54" rx="8" fill="#F7F8FA" stroke="#C9CDD4" stroke-width="1.5"/><text x="185" y="677" text-anchor="middle" dominant-baseline="middle">APP功能: 关联完整问卷/固定问题</text></g><g id="t10"><rect x="335" y="650" width="220" height="54" rx="8" fill="#F7F8FA" stroke="#C9CDD4" stroke-width="1.5"/><text x="445" y="677" text-anchor="middle" dominant-baseline="middle">设计/用研: 关联完整问卷/弹窗文案</text></g><g id="t11"><rect x="620" y="650" width="180" height="54" rx="8" fill="#F7F8FA" stroke="#C9CDD4" stroke-width="1.5"/><text x="710" y="677" text-anchor="middle" dominant-baseline="middle">分组/功能: 设置问卷问题</text></g><g id="t12"><rect x="500" y="745" width="160" height="54" rx="8" fill="#FFFFFF" stroke="#3370FF" stroke-width="1.5"/><text x="580" y="772" text-anchor="middle" dominant-baseline="middle">提交模板</text></g><g id="t13"><rect x="500" y="825" width="190" height="54" rx="8" fill="#FFFFFF" stroke="#3370FF" stroke-width="1.5"/><text x="595" y="852" text-anchor="middle" dominant-baseline="middle">新增或更新模板记录</text></g><g id="t15"><rect x="825" y="395" width="170" height="54" rx="8" fill="#FFFFFF" stroke="#3370FF" stroke-width="1.5"/><text x="910" y="422" text-anchor="middle" dominant-baseline="middle">更新模板状态</text></g></svg>