<svg xmlns="http://www.w3.org/2000/svg" width="1120" height="860" viewBox="0 0 1120 860">
<defs><marker id="arrow" markerWidth="10" markerHeight="10" refX="8" refY="3" orient="auto" markerUnits="strokeWidth"><path d="M0,0 L0,6 L9,3 z" fill="#8F959E"/></marker><style>text{font-family:Arial,'PingFang SC','Heiti SC',sans-serif;font-size:14px;fill:#1F2329}.title{font-size:22px;font-weight:600}.edge-label{font-size:12px;fill:#595959;paint-order:stroke;stroke:#fff;stroke-width:4px;stroke-linejoin:round}</style></defs><rect width="100%" height="100%" fill="#fff"/><text class="title" x="560" y="34" text-anchor="middle">NPS任务流程图</text><path d="M 585 114 L 585 140" stroke="#8F959E" stroke-width="1.5" fill="none" marker-end="url(#arrow)"/><path d="M 585 194 L 585 220" stroke="#8F959E" stroke-width="1.5" fill="none" marker-end="url(#arrow)"/><path d="M 500 247 L 345 247 L 345 342" stroke="#8F959E" stroke-width="1.5" fill="none" marker-end="url(#arrow)"/><text class="edge-label" x="353" y="239">查询</text><path d="M 585 274 L 585 315" stroke="#8F959E" stroke-width="1.5" fill="none" marker-end="url(#arrow)"/><text class="edge-label" x="593" y="307">新增</text><path d="M 670 247 L 900 247 L 900 315" stroke="#8F959E" stroke-width="1.5" fill="none" marker-end="url(#arrow)"/><text class="edge-label" x="908" y="239">复制</text><path d="M 500 247 L 270 247 L 270 465" stroke="#8F959E" stroke-width="1.5" fill="none" marker-end="url(#arrow)"/><text class="edge-label" x="278" y="239">编辑</text><path d="M 585 274 L 610 274 L 610 465" stroke="#8F959E" stroke-width="1.5" fill="none" marker-end="url(#arrow)"/><text class="edge-label" x="618" y="266">暂停</text><path d="M 670 247 L 910 247 L 910 465" stroke="#8F959E" stroke-width="1.5" fill="none" marker-end="url(#arrow)"/><text class="edge-label" x="918" y="239">投放人群</text><path d="M 225 315 L 225 170 L 500 170" stroke="#8F959E" stroke-width="1.5" fill="none" marker-end="url(#arrow)"/><path d="M 590 369 L 625 395" stroke="#8F959E" stroke-width="1.5" fill="none" marker-end="url(#arrow)"/><path d="M 900 369 L 900 395" stroke="#8F959E" stroke-width="1.5" fill="none" marker-end="url(#arrow)"/><path d="M 810 422 L 750 422" stroke="#8F959E" stroke-width="1.5" fill="none" marker-end="url(#arrow)"/><path d="M 625 449 L 585 610" stroke="#8F959E" stroke-width="1.5" fill="none" marker-end="url(#arrow)"/><path d="M 585 664 L 340 700" stroke="#8F959E" stroke-width="1.5" fill="none" marker-end="url(#arrow)"/><text class="edge-label" x="348" y="692">否</text><path d="M 585 664 L 595 700" stroke="#8F959E" stroke-width="1.5" fill="none" marker-end="url(#arrow)"/><text class="edge-label" x="603" y="692">是</text><path d="M 595 754 L 595 830 L 585 830 L 585 194" stroke="#8F959E" stroke-width="1.5" fill="none" marker-end="url(#arrow)"/><path d="M 270 519 L 145 555" stroke="#8F959E" stroke-width="1.5" fill="none" marker-end="url(#arrow)"/><text class="edge-label" x="153" y="547">否</text><path d="M 270 519 L 340 555" stroke="#8F959E" stroke-width="1.5" fill="none" marker-end="url(#arrow)"/><text class="edge-label" x="348" y="547">是</text><path d="M 340 609 L 500 637" stroke="#8F959E" stroke-width="1.5" fill="none" marker-end="url(#arrow)"/><path d="M 610 519 L 585 555" stroke="#8F959E" stroke-width="1.5" fill="none" marker-end="url(#arrow)"/><text class="edge-label" x="593" y="547">是</text><path d="M 585 609 L 585 700" stroke="#8F959E" stroke-width="1.5" fill="none" marker-end="url(#arrow)"/><path d="M 910 519 L 910 555" stroke="#8F959E" stroke-width="1.5" fill="none" marker-end="url(#arrow)"/><path d="M 910 609 L 910 650 L 910 650 L 910 465" stroke="#8F959E" stroke-width="1.5" fill="none" marker-end="url(#arrow)"/><g id="a0"><rect x="500" y="60" width="170" height="54" rx="8" fill="#E8F3FF" stroke="#3370FF" stroke-width="1.5"/><text x="585" y="87" text-anchor="middle" dominant-baseline="middle">进入NPS任务</text></g><g id="a1"><rect x="500" y="140" width="170" height="54" rx="8" fill="#F7F8FA" stroke="#C9CDD4" stroke-width="1.5"/><text x="585" y="167" text-anchor="middle" dominant-baseline="middle">NPS任务列表</text></g><g id="a2"><rect x="500" y="220" width="170" height="54" rx="22" fill="#FFF7E6" stroke="#FFB020" stroke-width="1.5"/><text x="585" y="247" text-anchor="middle" dominant-baseline="middle">操作类型</text></g><g id="a3"><rect x="105" y="315" width="240" height="54" rx="8" fill="#FFFFFF" stroke="#3370FF" stroke-width="1.5"/><text x="225" y="342" text-anchor="middle" dominant-baseline="middle">按任务名/场景/范围/时间/状态筛选</text></g><g id="a4"><rect x="500" y="315" width="180" height="54" rx="8" fill="#F7F8FA" stroke="#C9CDD4" stroke-width="1.5"/><text x="590" y="342" text-anchor="middle" dominant-baseline="middle">新增任务</text></g><g id="a9"><rect x="810" y="315" width="180" height="54" rx="8" fill="#F7F8FA" stroke="#C9CDD4" stroke-width="1.5"/><text x="900" y="342" text-anchor="middle" dominant-baseline="middle">复制原任务字段</text></g><g id="a11"><rect x="170" y="465" width="200" height="54" rx="22" fill="#FFF7E6" stroke="#FFB020" stroke-width="1.5"/><text x="270" y="492" text-anchor="middle" dominant-baseline="middle">编辑: 状态=初始状态</text></g><g id="a14"><rect x="500" y="465" width="220" height="54" rx="22" fill="#FFF7E6" stroke="#FFB020" stroke-width="1.5"/><text x="610" y="492" text-anchor="middle" dominant-baseline="middle">暂停: 初始状态或投放中</text></g><g id="a17"><rect x="820" y="465" width="180" height="54" rx="8" fill="#F7F8FA" stroke="#C9CDD4" stroke-width="1.5"/><text x="910" y="492" text-anchor="middle" dominant-baseline="middle">投放人群页面</text></g><g id="a5"><rect x="500" y="395" width="250" height="54" rx="8" fill="#F7F8FA" stroke="#C9CDD4" stroke-width="1.5"/><text x="625" y="412" text-anchor="middle" dominant-baseline="middle">选择计划/场景/范围/时间/应用端/版</text><text x="625" y="432" text-anchor="middle" dominant-baseline="middle">本/模板/人群</text></g><g id="a10"><rect x="810" y="395" width="240" height="54" rx="8" fill="#FFFFFF" stroke="#3370FF" stroke-width="1.5"/><text x="930" y="422" text-anchor="middle" dominant-baseline="middle">清空开始时间/结束时间/投放人群</text></g><g id="a6"><rect x="500" y="610" width="170" height="54" rx="22" fill="#FFF7E6" stroke="#FFB020" stroke-width="1.5"/><text x="585" y="637" text-anchor="middle" dominant-baseline="middle">校验通过</text></g><g id="a7"><rect x="245" y="700" width="190" height="54" rx="8" fill="#FFECE8" stroke="#F54A45" stroke-width="1.5"/><text x="340" y="727" text-anchor="middle" dominant-baseline="middle">提示错误并停留当前页</text></g><g id="a8"><rect x="500" y="700" width="190" height="54" rx="8" fill="#FFFFFF" stroke="#3370FF" stroke-width="1.5"/><text x="595" y="727" text-anchor="middle" dominant-baseline="middle">创建/更新任务: 初始状态</text></g><g id="a12"><rect x="70" y="555" width="150" height="54" rx="8" fill="#FFECE8" stroke="#F54A45" stroke-width="1.5"/><text x="145" y="582" text-anchor="middle" dominant-baseline="middle">禁止编辑</text></g><g id="a13"><rect x="255" y="555" width="170" height="54" rx="8" fill="#F7F8FA" stroke="#C9CDD4" stroke-width="1.5"/><text x="340" y="582" text-anchor="middle" dominant-baseline="middle">编辑任务信息</text></g><g id="a15"><rect x="500" y="555" width="170" height="54" rx="8" fill="#F7F8FA" stroke="#C9CDD4" stroke-width="1.5"/><text x="585" y="582" text-anchor="middle" dominant-baseline="middle">暂停确认弹窗</text></g><g id="a16"><rect x="500" y="700" width="190" height="54" rx="8" fill="#FFFFFF" stroke="#3370FF" stroke-width="1.5"/><text x="595" y="727" text-anchor="middle" dominant-baseline="middle">状态更新为暂停</text></g><g id="a18"><rect x="820" y="555" width="180" height="54" rx="8" fill="#FFFFFF" stroke="#3370FF" stroke-width="1.5"/><text x="910" y="582" text-anchor="middle" dominant-baseline="middle">按RingConn ID查询</text></g></svg>